<mxfile host="app.diagrams.net" modified="2023-06-16T01:26:43.690Z" agent="Mozilla/5.0 (Windows NT 10.0; Win64; x64) AppleWebKit/537.36 (KHTML, like Gecko) Chrome/114.0.0.0 Safari/537.36" etag="LCFhlhsfOkAcZBBrqFpx" version="21.3.7" type="device">
  <diagram name="페이지-1" id="yhSYEJNr5bJ7FUroEZfc">
    <mxGraphModel dx="1434" dy="756" grid="1" gridSize="10" guides="1" tooltips="1" connect="1" arrows="1" fold="1" page="1" pageScale="1" pageWidth="4681" pageHeight="3300" math="0" shadow="0">
      <root>
        <mxCell id="0" />
        <mxCell id="1" parent="0" />
        <mxCell id="3rGZEakXgl92f_dCKZG5-13" style="edgeStyle=none;shape=connector;rounded=0;orthogonalLoop=1;jettySize=auto;html=1;entryX=0.5;entryY=0;entryDx=0;entryDy=0;labelBackgroundColor=default;strokeColor=default;fontFamily=Helvetica;fontSize=11;fontColor=default;endArrow=classic;exitX=0.5;exitY=1;exitDx=0;exitDy=0;" edge="1" parent="1" source="3rGZEakXgl92f_dCKZG5-2" target="3rGZEakXgl92f_dCKZG5-4">
          <mxGeometry relative="1" as="geometry" />
        </mxCell>
        <mxCell id="3rGZEakXgl92f_dCKZG5-14" style="edgeStyle=none;shape=connector;rounded=0;orthogonalLoop=1;jettySize=auto;html=1;entryX=0.5;entryY=0;entryDx=0;entryDy=0;labelBackgroundColor=default;strokeColor=default;fontFamily=Helvetica;fontSize=11;fontColor=default;endArrow=classic;" edge="1" parent="1" source="3rGZEakXgl92f_dCKZG5-2" target="3rGZEakXgl92f_dCKZG5-5">
          <mxGeometry relative="1" as="geometry" />
        </mxCell>
        <mxCell id="3rGZEakXgl92f_dCKZG5-15" style="edgeStyle=none;shape=connector;rounded=0;orthogonalLoop=1;jettySize=auto;html=1;entryX=0.5;entryY=0;entryDx=0;entryDy=0;labelBackgroundColor=default;strokeColor=default;fontFamily=Helvetica;fontSize=11;fontColor=default;endArrow=classic;exitX=0.5;exitY=1;exitDx=0;exitDy=0;" edge="1" parent="1" source="3rGZEakXgl92f_dCKZG5-2" target="3rGZEakXgl92f_dCKZG5-6">
          <mxGeometry relative="1" as="geometry" />
        </mxCell>
        <mxCell id="3rGZEakXgl92f_dCKZG5-16" style="edgeStyle=none;shape=connector;rounded=0;orthogonalLoop=1;jettySize=auto;html=1;entryX=0.5;entryY=0;entryDx=0;entryDy=0;labelBackgroundColor=default;strokeColor=default;fontFamily=Helvetica;fontSize=11;fontColor=default;endArrow=classic;exitX=0.5;exitY=1;exitDx=0;exitDy=0;" edge="1" parent="1" source="3rGZEakXgl92f_dCKZG5-2" target="3rGZEakXgl92f_dCKZG5-7">
          <mxGeometry relative="1" as="geometry" />
        </mxCell>
        <mxCell id="3rGZEakXgl92f_dCKZG5-17" style="edgeStyle=none;shape=connector;rounded=0;orthogonalLoop=1;jettySize=auto;html=1;entryX=0.5;entryY=0;entryDx=0;entryDy=0;labelBackgroundColor=default;strokeColor=default;fontFamily=Helvetica;fontSize=11;fontColor=default;endArrow=classic;exitX=0.5;exitY=1;exitDx=0;exitDy=0;" edge="1" parent="1" source="3rGZEakXgl92f_dCKZG5-2" target="3rGZEakXgl92f_dCKZG5-3">
          <mxGeometry relative="1" as="geometry">
            <mxPoint x="160" y="549" as="targetPoint" />
          </mxGeometry>
        </mxCell>
        <mxCell id="3rGZEakXgl92f_dCKZG5-2" value="상품정보" style="rounded=1;arcSize=10;whiteSpace=wrap;html=1;align=center;fillColor=#d5e8d4;strokeColor=#82b366;" vertex="1" parent="1">
          <mxGeometry x="350" y="440" width="100" height="40" as="geometry" />
        </mxCell>
        <mxCell id="3rGZEakXgl92f_dCKZG5-3" value="상품코드" style="ellipse;whiteSpace=wrap;html=1;align=center;fontStyle=4;fillColor=#dae8fc;strokeColor=#6c8ebf;" vertex="1" parent="1">
          <mxGeometry x="110" y="550" width="100" height="40" as="geometry" />
        </mxCell>
        <mxCell id="3rGZEakXgl92f_dCKZG5-4" value="상품명" style="ellipse;whiteSpace=wrap;html=1;align=center;" vertex="1" parent="1">
          <mxGeometry x="230" y="549" width="100" height="40" as="geometry" />
        </mxCell>
        <mxCell id="3rGZEakXgl92f_dCKZG5-5" value="품목" style="ellipse;whiteSpace=wrap;html=1;align=center;" vertex="1" parent="1">
          <mxGeometry x="350" y="549" width="100" height="40" as="geometry" />
        </mxCell>
        <mxCell id="3rGZEakXgl92f_dCKZG5-6" value="매입단가" style="ellipse;whiteSpace=wrap;html=1;align=center;" vertex="1" parent="1">
          <mxGeometry x="470" y="549" width="100" height="40" as="geometry" />
        </mxCell>
        <mxCell id="3rGZEakXgl92f_dCKZG5-7" value="매출단가" style="ellipse;whiteSpace=wrap;html=1;align=center;" vertex="1" parent="1">
          <mxGeometry x="590" y="549" width="100" height="40" as="geometry" />
        </mxCell>
        <mxCell id="3rGZEakXgl92f_dCKZG5-18" style="edgeStyle=none;shape=connector;rounded=0;orthogonalLoop=1;jettySize=auto;html=1;entryX=0.5;entryY=0;entryDx=0;entryDy=0;labelBackgroundColor=default;strokeColor=default;fontFamily=Helvetica;fontSize=11;fontColor=default;endArrow=classic;exitX=0.5;exitY=1;exitDx=0;exitDy=0;" edge="1" parent="1" source="3rGZEakXgl92f_dCKZG5-23" target="3rGZEakXgl92f_dCKZG5-25">
          <mxGeometry relative="1" as="geometry" />
        </mxCell>
        <mxCell id="3rGZEakXgl92f_dCKZG5-19" style="edgeStyle=none;shape=connector;rounded=0;orthogonalLoop=1;jettySize=auto;html=1;entryX=0.5;entryY=0;entryDx=0;entryDy=0;labelBackgroundColor=default;strokeColor=default;fontFamily=Helvetica;fontSize=11;fontColor=default;endArrow=classic;exitX=0.5;exitY=1;exitDx=0;exitDy=0;" edge="1" parent="1" source="3rGZEakXgl92f_dCKZG5-23" target="3rGZEakXgl92f_dCKZG5-26">
          <mxGeometry relative="1" as="geometry" />
        </mxCell>
        <mxCell id="3rGZEakXgl92f_dCKZG5-20" style="edgeStyle=none;shape=connector;rounded=0;orthogonalLoop=1;jettySize=auto;html=1;entryX=0.5;entryY=0;entryDx=0;entryDy=0;labelBackgroundColor=default;strokeColor=default;fontFamily=Helvetica;fontSize=11;fontColor=default;endArrow=classic;exitX=0.5;exitY=1;exitDx=0;exitDy=0;" edge="1" parent="1" source="3rGZEakXgl92f_dCKZG5-23" target="3rGZEakXgl92f_dCKZG5-27">
          <mxGeometry relative="1" as="geometry" />
        </mxCell>
        <mxCell id="3rGZEakXgl92f_dCKZG5-22" style="edgeStyle=none;shape=connector;rounded=0;orthogonalLoop=1;jettySize=auto;html=1;entryX=0.5;entryY=0;entryDx=0;entryDy=0;labelBackgroundColor=default;strokeColor=default;fontFamily=Helvetica;fontSize=11;fontColor=default;endArrow=classic;exitX=0.5;exitY=1;exitDx=0;exitDy=0;" edge="1" parent="1" source="3rGZEakXgl92f_dCKZG5-23" target="3rGZEakXgl92f_dCKZG5-24">
          <mxGeometry relative="1" as="geometry" />
        </mxCell>
        <mxCell id="3rGZEakXgl92f_dCKZG5-23" value="고객정보" style="rounded=1;arcSize=10;whiteSpace=wrap;html=1;align=center;fillColor=#d5e8d4;strokeColor=#82b366;" vertex="1" parent="1">
          <mxGeometry x="880" y="440" width="100" height="40" as="geometry" />
        </mxCell>
        <mxCell id="3rGZEakXgl92f_dCKZG5-24" value="고객ID" style="ellipse;whiteSpace=wrap;html=1;align=center;fontStyle=4;fillColor=#dae8fc;strokeColor=#6c8ebf;" vertex="1" parent="1">
          <mxGeometry x="710" y="550" width="100" height="40" as="geometry" />
        </mxCell>
        <mxCell id="3rGZEakXgl92f_dCKZG5-25" value="고객이름" style="ellipse;whiteSpace=wrap;html=1;align=center;" vertex="1" parent="1">
          <mxGeometry x="830" y="550" width="100" height="40" as="geometry" />
        </mxCell>
        <mxCell id="3rGZEakXgl92f_dCKZG5-26" value="전화번호" style="ellipse;whiteSpace=wrap;html=1;align=center;" vertex="1" parent="1">
          <mxGeometry x="950" y="550" width="100" height="40" as="geometry" />
        </mxCell>
        <mxCell id="3rGZEakXgl92f_dCKZG5-27" value="주소" style="ellipse;whiteSpace=wrap;html=1;align=center;" vertex="1" parent="1">
          <mxGeometry x="1070" y="550" width="100" height="40" as="geometry" />
        </mxCell>
        <mxCell id="3rGZEakXgl92f_dCKZG5-39" style="edgeStyle=none;shape=connector;rounded=0;orthogonalLoop=1;jettySize=auto;html=1;entryX=0.5;entryY=1;entryDx=0;entryDy=0;labelBackgroundColor=default;strokeColor=default;fontFamily=Helvetica;fontSize=11;fontColor=default;endArrow=classic;exitX=0.5;exitY=0;exitDx=0;exitDy=0;" edge="1" parent="1" source="3rGZEakXgl92f_dCKZG5-30" target="3rGZEakXgl92f_dCKZG5-38">
          <mxGeometry relative="1" as="geometry" />
        </mxCell>
        <mxCell id="3rGZEakXgl92f_dCKZG5-40" style="edgeStyle=none;shape=connector;rounded=0;orthogonalLoop=1;jettySize=auto;html=1;exitX=0.5;exitY=0;exitDx=0;exitDy=0;entryX=0.5;entryY=1;entryDx=0;entryDy=0;labelBackgroundColor=default;strokeColor=default;fontFamily=Helvetica;fontSize=11;fontColor=default;endArrow=classic;" edge="1" parent="1" source="3rGZEakXgl92f_dCKZG5-30" target="3rGZEakXgl92f_dCKZG5-33">
          <mxGeometry relative="1" as="geometry" />
        </mxCell>
        <mxCell id="3rGZEakXgl92f_dCKZG5-41" style="edgeStyle=none;shape=connector;rounded=0;orthogonalLoop=1;jettySize=auto;html=1;entryX=0.5;entryY=1;entryDx=0;entryDy=0;labelBackgroundColor=default;strokeColor=default;fontFamily=Helvetica;fontSize=11;fontColor=default;endArrow=classic;exitX=0.5;exitY=0;exitDx=0;exitDy=0;" edge="1" parent="1" source="3rGZEakXgl92f_dCKZG5-30" target="3rGZEakXgl92f_dCKZG5-34">
          <mxGeometry relative="1" as="geometry" />
        </mxCell>
        <mxCell id="3rGZEakXgl92f_dCKZG5-42" style="edgeStyle=none;shape=connector;rounded=0;orthogonalLoop=1;jettySize=auto;html=1;exitX=0.5;exitY=0;exitDx=0;exitDy=0;entryX=0.5;entryY=1;entryDx=0;entryDy=0;labelBackgroundColor=default;strokeColor=default;fontFamily=Helvetica;fontSize=11;fontColor=default;endArrow=classic;" edge="1" parent="1" source="3rGZEakXgl92f_dCKZG5-30" target="3rGZEakXgl92f_dCKZG5-35">
          <mxGeometry relative="1" as="geometry" />
        </mxCell>
        <mxCell id="3rGZEakXgl92f_dCKZG5-43" style="edgeStyle=none;shape=connector;rounded=0;orthogonalLoop=1;jettySize=auto;html=1;exitX=0.5;exitY=0;exitDx=0;exitDy=0;entryX=0.5;entryY=1;entryDx=0;entryDy=0;labelBackgroundColor=default;strokeColor=default;fontFamily=Helvetica;fontSize=11;fontColor=default;endArrow=classic;" edge="1" parent="1" source="3rGZEakXgl92f_dCKZG5-30" target="3rGZEakXgl92f_dCKZG5-36">
          <mxGeometry relative="1" as="geometry" />
        </mxCell>
        <mxCell id="3rGZEakXgl92f_dCKZG5-44" style="edgeStyle=none;shape=connector;rounded=0;orthogonalLoop=1;jettySize=auto;html=1;exitX=0.5;exitY=0;exitDx=0;exitDy=0;entryX=0.5;entryY=1;entryDx=0;entryDy=0;labelBackgroundColor=default;strokeColor=default;fontFamily=Helvetica;fontSize=11;fontColor=default;endArrow=classic;" edge="1" parent="1" source="3rGZEakXgl92f_dCKZG5-30" target="3rGZEakXgl92f_dCKZG5-37">
          <mxGeometry relative="1" as="geometry" />
        </mxCell>
        <mxCell id="3rGZEakXgl92f_dCKZG5-30" value="판매내역&lt;br&gt;" style="shape=rhombus;perimeter=rhombusPerimeter;whiteSpace=wrap;html=1;align=center;fontFamily=Helvetica;fontSize=11;fontColor=default;" vertex="1" parent="1">
          <mxGeometry x="600" y="320" width="120" height="60" as="geometry" />
        </mxCell>
        <mxCell id="3rGZEakXgl92f_dCKZG5-32" value="" style="fontSize=12;html=1;endArrow=ERoneToMany;rounded=0;labelBackgroundColor=default;strokeColor=default;fontFamily=Helvetica;fontColor=default;shape=connector;exitX=0.5;exitY=0;exitDx=0;exitDy=0;entryX=0.5;entryY=1;entryDx=0;entryDy=0;" edge="1" parent="1" source="3rGZEakXgl92f_dCKZG5-23" target="3rGZEakXgl92f_dCKZG5-30">
          <mxGeometry width="100" height="100" relative="1" as="geometry">
            <mxPoint x="460" y="480" as="sourcePoint" />
            <mxPoint x="710" y="300" as="targetPoint" />
          </mxGeometry>
        </mxCell>
        <mxCell id="3rGZEakXgl92f_dCKZG5-33" value="거래일자" style="ellipse;whiteSpace=wrap;html=1;align=center;" vertex="1" parent="1">
          <mxGeometry x="430" y="200" width="100" height="40" as="geometry" />
        </mxCell>
        <mxCell id="3rGZEakXgl92f_dCKZG5-34" value="거래시각" style="ellipse;whiteSpace=wrap;html=1;align=center;" vertex="1" parent="1">
          <mxGeometry x="550" y="200" width="100" height="40" as="geometry" />
        </mxCell>
        <mxCell id="3rGZEakXgl92f_dCKZG5-35" value="수량" style="ellipse;whiteSpace=wrap;html=1;align=center;" vertex="1" parent="1">
          <mxGeometry x="670" y="200" width="100" height="40" as="geometry" />
        </mxCell>
        <mxCell id="3rGZEakXgl92f_dCKZG5-36" value="판매단가" style="ellipse;whiteSpace=wrap;html=1;align=center;" vertex="1" parent="1">
          <mxGeometry x="790" y="200" width="100" height="40" as="geometry" />
        </mxCell>
        <mxCell id="3rGZEakXgl92f_dCKZG5-37" value="판매금액" style="ellipse;whiteSpace=wrap;html=1;align=center;" vertex="1" parent="1">
          <mxGeometry x="910" y="200" width="100" height="40" as="geometry" />
        </mxCell>
        <mxCell id="3rGZEakXgl92f_dCKZG5-38" value="SEQ" style="ellipse;whiteSpace=wrap;html=1;align=center;fontStyle=4;fillColor=#dae8fc;strokeColor=#6c8ebf;" vertex="1" parent="1">
          <mxGeometry x="310" y="200" width="100" height="40" as="geometry" />
        </mxCell>
        <mxCell id="3rGZEakXgl92f_dCKZG5-45" value="" style="endArrow=none;html=1;rounded=0;labelBackgroundColor=default;strokeColor=default;fontFamily=Helvetica;fontSize=11;fontColor=default;shape=connector;entryX=0.5;entryY=1;entryDx=0;entryDy=0;exitX=0.5;exitY=0;exitDx=0;exitDy=0;" edge="1" parent="1" source="3rGZEakXgl92f_dCKZG5-2" target="3rGZEakXgl92f_dCKZG5-30">
          <mxGeometry relative="1" as="geometry">
            <mxPoint x="320" y="360" as="sourcePoint" />
            <mxPoint x="480" y="360" as="targetPoint" />
          </mxGeometry>
        </mxCell>
        <mxCell id="3rGZEakXgl92f_dCKZG5-46" value="N" style="resizable=0;html=1;whiteSpace=wrap;align=right;verticalAlign=bottom;fontFamily=Helvetica;fontSize=11;fontColor=default;" connectable="0" vertex="1" parent="3rGZEakXgl92f_dCKZG5-45">
          <mxGeometry x="1" relative="1" as="geometry" />
        </mxCell>
      </root>
    </mxGraphModel>
  </diagram>
</mxfile>
